{"title":"Inside.Out.2015.HD-TS.XVID.AC3-VAiN","uid":12076763,"size":984483954,"categoryP":"video","categoryS":"movies","magnet":"?xt=urn:btih:d7476e9236e1bd8d2b459534e6cef6aa0bb556e5&amp;dn=Inside.Out.2015.HD-TS.XVID.AC3-VAiN&amp;tr=udp%3A%2F%2Ftracker.openbittorrent.com%3A80&amp;tr=udp%3A%2F%2Fopen.demonii.com%3A1337&amp;tr=udp%3A%2F%2Ftracker.coppersurfer.tk%3A6969&amp;tr=udp%3A%2F%2Fexodus.desync.com%3A6969","seeders":1670,"leechers":582,"uploader":"xxxlavalxxx","files":4,"time":1435659236,"description":" &lt;a href=&quot;http://extraimago.com/image/nFX&quot; rel=&quot;nofollow&quot; target=&quot;_NEW&quot;&gt;http://extraimago.com/image/nFX&lt;/a&gt;\n &lt;a href=&quot;\nhttp://www.imdb.com/title/tt2096673/&quot; rel=&quot;nofollow&quot; target=&quot;_NEW&quot;&gt;\nhttp://www.imdb.com/title/tt2096673/&lt;/a&gt;\n\n\nAfter young Riley is uprooted from her Midwest life and moved to San Francisco, her emotions - Joy, Fear, Anger, Disgust and Sadness - conflict on how best to navigate a new city, house and school.\n\nDirectors: Pete Docter, Ronaldo Del Carmen\nWriters: Pete Docter (story), Ronaldo Del Carmen (story) (as Ronnie del Carmen) \nStars: Amy Poehler, Bill Hader, Lewis Black \nGenres: Animation | Comedy | Drama | Family\nCountry: USA\nLanguage: English\n\n\nBasic Information\nFormat: AVI\nFormat/Info: Audio Video Interleave\nFile size: 927 MiB\nDuration: 1h 26mn\nOverall bit rate: 1 506 Kbps\nWriting application: VirtualDubMod 1.5.10.2 (build\n\n2540/release)\nWriting library: VirtualDubMod build 2540/release\n\nVideo\nID: 0\nFormat: MPEG-4 Visual\nFormat profile: Advanced Simple@L5\nFormat settings, BVOP: 2\nFormat settings, QPel: No\nFormat settings, GMC: No warppoints\nFormat settings, Matrix: Default (MPEG)\nMuxing mode: Packed bitstream\nCodec ID: XVID\nCodec ID/Hint: XviD\nDuration: 1h 26mn\nBit rate: 1 240 Kbps\nWidth: 600 pixels\nHeight: 336 pixels\nDisplay aspect ratio: 16:9\nFrame rate: 23.976 fps\nColor space: YUV\nChroma subsampling: 4:2:0\nBit depth: 8 bits\nScan type: Progressive\nCompression mode: Lossy\nBits/(Pixel*Frame): 0.257\nStream size: 763 MiB (82%)\nWriting library: XviD 66\n\nAudio\nID: 1\nFormat: AC-3\nFormat/Info: Audio Coding 3\nMode extension: CM (complete main)\nFormat settings, Endianness: Big\nCodec ID: 2000\nDuration: 1h 26mn\nBit rate mode: Constant\nBit rate: 256 Kbps\nChannel(s): 2 channels\nChannel positions: Front: L R\nSampling rate: 48.0 KHz\nBit depth: 16 bits\nCompression mode: Lossy\nStream size: 158 MiB (17%)\nAlignment: Split accross interleaves\nInterleave, duration: 42 ms (1.00 video frame)\nInterleave, preload duration: 500 ms\n\nE N C O D E R S . N O T E S\n\nSOURCE: ViDEO...Assistir - Divertida Mente MP4 &amp; Hive-CM8: AUDiO...HiVE-CM8 release\nSAMPLE: Yippers\nADDED NOTE: video was really nice, however did tweak a few things here and there\nrgb, lvls, denoise, sharp &amp; resized. tooks Hive-CM8's video and stoles some :shit:\n\nfrom them &quot;LOL!!!!&quot; straight up kniced from them. then took audio, threw in AA ran\n\njust a few filters then muxed ova this sexy mofo and well.... here we are!!! oh the\n\nlulz\n\n &lt;a href=&quot;\nhttp://extraimago.com/image/sfn&quot; rel=&quot;nofollow&quot; target=&quot;_NEW&quot;&gt;\nhttp://extraimago.com/image/sfn&lt;/a&gt; &lt;a href=&quot;\nhttp://extraimago.com/image/sfs&quot; rel=&quot;nofollow&quot; target=&quot;_NEW&quot;&gt;\nhttp://extraimago.com/image/sfs&lt;/a&gt; &lt;a href=&quot;\nhttp://extraimago.com/image/sf7&quot; rel=&quot;nofollow&quot; target=&quot;_NEW&quot;&gt;\nhttp://extraimago.com/image/sf7&lt;/a&gt; &lt;a href=&quot;\nhttp://extraimago.com/image/sfc&quot; rel=&quot;nofollow&quot; target=&quot;_NEW&quot;&gt;\nhttp://extraimago.com/image/sfc&lt;/a&gt; &lt;a href=&quot;\nhttp://extraimago.com/image/sf1&quot; rel=&quot;nofollow&quot; target=&quot;_NEW&quot;&gt;\nhttp://extraimago.com/image/sf1&lt;/a&gt; &lt;a href=&quot;\nhttp://extraimago.com/image/sfE&quot; rel=&quot;nofollow&quot; target=&quot;_NEW&quot;&gt;\nhttp://extraimago.com/image/sfE&lt;/a&gt; &lt;a href=&quot;\nhttp://extraimago.com/image/sfO&quot; rel=&quot;nofollow&quot; target=&quot;_NEW&quot;&gt;\nhttp://extraimago.com/image/sfO&lt;/a&gt; &lt;a href=&quot;\nhttp://extraimago.com/image/sfS&quot; rel=&quot;nofollow&quot; target=&quot;_NEW&quot;&gt;\nhttp://extraimago.com/image/sfS&lt;/a&gt;","torrent":{"xt":"urn:btih:d7476e9236e1bd8d2b459534e6cef6aa0bb556e5","amp;dn":"Inside.Out.2015.HD-TS.XVID.AC3-VAiN","amp;tr":["udp%3A%2F%2Ftracker.openbittorrent.com%3A80","udp%3A%2F%2Fopen.demonii.com%3A1337","udp%3A%2F%2Ftracker.coppersurfer.tk%3A6969","udp%3A%2F%2Fexodus.desync.com%3A6969"],"infoHash":"d7476e9236e1bd8d2b459534e6cef6aa0bb556e5","infoHashBuffer":{"type":"Buffer","data":[215,71,110,146,54,225,189,141,43,69,149,52,230,206,246,170,11,181,86,229]},"announce":[],"urlList":[]}}